<svg id="Layer_1" data-name="Layer 1" xmlns="http://www.w3.org/2000/svg" viewBox="0 0 512 512"><defs><style>.cls-1{fill:#d9e4e8;}.cls-2{fill:#79d3d3;}.cls-3{fill:#141f38;}.cls-4{opacity:0.05;}.cls-5{fill:#231f20;}</style></defs><title>phone-filled</title><path class="cls-1" d="M179.2,499.2A51.26,51.26,0,0,1,128,448V422.4H384V448a51.26,51.26,0,0,1-51.2,51.2Z"/><rect class="cls-2" x="128" y="89.6" width="256" height="332.8"/><path class="cls-1" d="M128,89.6V64a51.26,51.26,0,0,1,51.2-51.2H332.8A51.26,51.26,0,0,1,384,64V89.6Z"/><circle class="cls-3" cx="256" cy="460.8" r="12.8"/><path class="cls-3" d="M332.8,0H179.2a64,64,0,0,0-64,64V448a64,64,0,0,0,64,64H332.8a64,64,0,0,0,64-64V64A64,64,0,0,0,332.8,0Zm38.4,448a38.44,38.44,0,0,1-38.4,38.4H179.2A38.44,38.44,0,0,1,140.8,448V435.2H371.2Zm0-38.4H140.8V102.4H371.2ZM140.8,76.8V64a38.44,38.44,0,0,1,38.4-38.4H332.8A38.44,38.44,0,0,1,371.2,64V76.8Z"/><path class="cls-3" d="M268.8,38.4H243.2a12.8,12.8,0,0,0,0,25.6h25.6a12.8,12.8,0,0,0,0-25.6Z"/><g class="cls-4"><polygon class="cls-5" points="396.8 102.4 115.2 384 115.2 435.2 396.8 435.2 396.8 102.4"/></g></svg>